<?xml version="1.0" encoding="UTF-8" standalone="no"?>
<!-- Created with Inkscape (http://www.inkscape.org/) -->

<svg
   xmlns:dc="http://purl.org/dc/elements/1.1/"
   xmlns:cc="http://creativecommons.org/ns#"
   xmlns:rdf="http://www.w3.org/1999/02/22-rdf-syntax-ns#"
   xmlns:svg="http://www.w3.org/2000/svg"
   xmlns="http://www.w3.org/2000/svg"
   xmlns:sodipodi="http://sodipodi.sourceforge.net/DTD/sodipodi-0.dtd"
   xmlns:inkscape="http://www.inkscape.org/namespaces/inkscape"
   width="513.05548"
   height="513.05548"
   id="svg2"
   version="1.1"
   inkscape:version="0.48.4 r9939"
   sodipodi:docname="New document 1">
  <defs
     id="defs4" />
  <sodipodi:namedview
     id="base"
     pagecolor="#ffffff"
     bordercolor="#666666"
     borderopacity="1.0"
     inkscape:pageopacity="0.0"
     inkscape:pageshadow="2"
     inkscape:zoom="0.98994949"
     inkscape:cx="265.74073"
     inkscape:cy="265.78794"
     inkscape:document-units="px"
     inkscape:current-layer="g2996"
     showgrid="false"
     fit-margin-top="0"
     fit-margin-left="0"
     fit-margin-right="0"
     fit-margin-bottom="0"
     inkscape:window-width="1366"
     inkscape:window-height="749"
     inkscape:window-x="0"
     inkscape:window-y="0"
     inkscape:window-maximized="0" />
  <metadata
     id="metadata7">
    <rdf:RDF>
      <cc:Work
         rdf:about="">
        <dc:format>image/svg+xml</dc:format>
        <dc:type
           rdf:resource="http://purl.org/dc/dcmitype/StillImage" />
        <dc:title></dc:title>
      </cc:Work>
    </rdf:RDF>
  </metadata>
  <g
     inkscape:label="Layer 1"
     inkscape:groupmode="layer"
     id="layer1"
     transform="translate(-156.86169,-432.1651)">
    <g
       id="g2996"
       transform="translate(228.29448,-14.142136)">
      <path
         style="fill:#b3b3b3;stroke:#000000;stroke-width:10"
         d="m -46.067864,904.17937 c -2.67016,-0.52621 -5.19359,-2.67294 -6.26933,-5.33341 l -0.58574,-1.44864 -0.0664,-83.75002 c -0.044,-55.52974 0.0208,-84.22191 0.19245,-85.15046 0.51372,-2.77897 2.19875,-5.04985 4.74802,-6.39883 l 1.28264,-0.67872 30.39854,0 30.39853,0 1.28264,0.63519 c 1.71896,0.85129 3.35484,2.53701 4.18905,4.31669 l 0.68498,1.46131 0.12826,51.56208 0.12827,51.56208 164.819074,0 164.81907,0 0.12827,-51.69034 0.12826,-51.69034 0.71071,-1.44721 c 0.82917,-1.68849 2.5477,-3.37 4.24651,-4.15513 l 1.19945,-0.55433 30.27027,0 30.27027,0 1.19945,0.55433 c 1.6988,0.78513 3.41733,2.46664 4.24651,4.15513 l 0.71071,1.44721 0,85.29547 0,85.29547 -0.6111,1.1465 c -0.33611,0.63057 -0.84978,1.46932 -1.14147,1.86388 -0.82915,1.12146 -2.97337,2.45 -4.65039,2.88132 -1.36847,0.35196 -25.67815,0.39028 -231.64455,0.36512 -126.563594,-0.0154 -230.609404,-0.12542 -231.212914,-0.24435 z M 182.32218,812.60243 c -2.10825,-0.32979 -3.81783,-0.91236 -5.78104,-1.96997 -1.46774,-0.7907 -9.67351,-8.9057 -68.51629,-67.75842 -62.670014,-62.68061 -66.905984,-66.97241 -67.762734,-68.65585 -1.80608,-3.54875 -2.26405,-6.391 -1.62576,-10.08969 1.19693,-6.93588 5.44877,-12.76381 10.87132,-14.90118 3.39301,-1.3374 2.27268,-1.30323 42.72187,-1.30323 31.095184,0 37.609864,-0.0592 37.846224,-0.344 0.20762,-0.25018 0.30365,-18.28497 0.35207,-66.12003 l 0.0666,-65.77602 0.68729,-1.88153 c 1.03599,-2.83613 2.16625,-4.55709 4.57468,-6.96552 3.36313,-3.36313 6.50786,-4.91279 10.98357,-5.41249 1.37537,-0.15355 16.73123,-0.21783 40.06512,-0.16771 34.54497,0.0742 37.97323,0.11891 39.42451,0.51421 6.09313,1.65963 10.96485,6.27272 13.20308,12.50214 l 0.59909,1.66743 0.12827,65.92763 0.12826,65.92763 38.60742,0.13549 c 42.97551,0.15082 39.37514,-0.009 43.29016,1.92452 4.3294,2.13844 7.88577,6.97193 9.32548,12.67436 0.45226,1.79127 0.52406,2.65385 0.41645,5.00229 -0.15772,3.44152 -0.75266,5.31848 -2.51421,7.93192 -0.92442,1.37145 -17.89596,18.4796 -67.49801,68.0413 -65.63455,65.58111 -66.2829,66.21925 -68.34723,67.27061 -1.14626,0.58378 -2.82837,1.23402 -3.73799,1.44499 -2.1792,0.50539 -5.60277,0.67916 -7.50817,0.38112 z"
         id="path2998"
         inkscape:connector-curvature="0" />
    </g>
  </g>
</svg>
